<svg width="349" height="349" viewBox="0 0 349 349" fill="none" xmlns="http://www.w3.org/2000/svg">
<path d="M281.235 210.709L266.693 186.569C263.64 181.189 260.877 171.01 260.877 165.048V128.257C260.877 94.0845 240.809 64.5649 211.871 50.7503C204.31 37.372 190.35 29.0833 174.354 29.0833C158.503 29.0833 144.253 37.6628 136.691 51.1866C108.335 65.292 88.7034 94.5207 88.7034 128.257V165.048C88.7034 171.01 85.9405 181.189 82.8868 186.424L68.1997 210.709C62.383 220.452 61.0742 231.212 64.7097 241.101C68.1997 250.844 76.4884 258.405 87.2493 262.041C115.46 271.638 145.125 276.292 174.79 276.292C204.455 276.292 234.12 271.638 262.331 262.186C272.51 258.842 280.363 251.134 284.143 241.101C287.924 231.067 286.906 220.015 281.235 210.709Z" fill="#121212"/>
<path d="M215.655 290.978C209.548 307.847 193.406 319.916 174.502 319.916C163.014 319.916 151.672 315.263 143.674 306.974C139.02 302.612 135.53 296.795 133.495 290.833C135.385 291.124 137.275 291.269 139.311 291.56C142.656 291.996 146.146 292.433 149.636 292.723C157.925 293.45 166.359 293.887 174.793 293.887C183.082 293.887 191.37 293.45 199.514 292.723C202.568 292.433 205.621 292.287 208.53 291.851C210.856 291.56 213.183 291.269 215.655 290.978Z" fill="#121212"/>
<path d="M216.47 157.731L169.345 204.537C167.658 206.212 165.476 207 163.194 207C161.011 207 158.829 206.212 157.142 204.537L133.53 181.183C130.157 177.734 130.157 172.315 133.53 168.965C136.903 165.614 142.459 165.614 145.832 168.965L163.194 186.209L204.168 145.513C207.541 142.162 213.097 142.162 216.47 145.513C219.843 148.962 219.843 154.381 216.47 157.731" fill="#F2F2F2"/>
</svg>
